<svg id="epsI7ZardJH1" xmlns="http://www.w3.org/2000/svg" xmlns:xlink="http://www.w3.org/1999/xlink"
    viewBox="0 0 325.08475 95.528008" shape-rendering="geometricPrecision"
    text-rendering="geometricPrecision">
    <g transform="translate(-100.704808-199.738)">
        <path
            d="M146.41729,292.21889c-3.97872-.7931-8.86171-2.00711-10.85108-2.69779s-5.61648-2.73303-8.06025-4.53853c-3.62408-2.67755-4.9973-4.68138-7.4486-10.86919-1.65296-4.17253-4.31074-14.27722-5.9062-22.45486s-3.33342-15.83643-3.86214-17.01952-2.23918-2.93172-3.80104-3.88584c-1.71922-1.05024-2.99919-2.8268-3.2438-4.50229-.22222-1.52213-.91849-4.50509-1.54727-6.62878s-1.07003-4.88853-.98057-6.1441.77823-3.0076,1.53059-3.89342c.89622-1.05519,5.45386-2.17562,13.21682-3.24913c6.5169-.90121,16.12289-2.75429,21.34666-4.11795l9.49777-2.47938l27.94226,1.80654c15.36825.9936,33.55139,2.55433,40.40699,3.46829s17.98279,3.02408,24.72712,4.68915c10.62936,2.62425,14.92387,3.15478,32.2471,3.9838c16.82418.80513,21.03395.6943,26.61927-.70079c3.64901-.91144,7.88359-1.57161,9.41018-1.46705c1.52658.10477,4.39849-.35606,6.382-1.02361s8.68801-1.57529,14.89892-2.01719s18.71501-.50338,27.78688-.13663c10.14461.41011,18.23358.24201,21.01232-.43669c2.4849-.60693,6.60324-.95492,9.15188-.77332s8.11597,1.64598,12.37186,3.25418s11.60747,3.75495,16.33685,4.77056c4.75914,1.02199,9.06781,2.5012,9.64903,3.31259.65843.91921.71667,4.1951.15613,8.78249-.79995,6.54674-1.25581,7.67374-4.33307,10.71268-1.8915,1.86792-3.78052,4.84774-4.19785,6.62183s-2.34383,9.42864-4.28111,17.01011c-2.11888,8.29214-4.66041,15.74918-6.37862,18.71533-1.76263,3.04283-4.42338,5.85929-6.94902,7.35572-2.25102,1.3337-7.51234,3.24854-11.69183,4.25519s-11.86361,2.29362-17.0758,2.85992c-6.61516.71873-15.35218.64206-28.9347-.25389-15.76267-1.03973-20.48031-1.68207-24.84113-3.38212-2.96073-1.15422-7.40274-3.76268-9.87114-5.79656s-6.08407-6.1888-8.03482-9.23314c-1.98917-3.10428-6.16061-13.17201-9.49845-22.92439-3.56159-10.40611-6.75485-18.04164-7.95182-19.01383-1.15522-.9383-4.23754-1.78402-7.29637-2.00197-2.91291-.20756-6.86193.14958-8.77561.79363s-4.03375,2.05024-4.71127,3.12484-3.73102,7.77513-6.78558,14.89004-6.81777,15.32595-8.36272,18.24675-4.37889,7.41181-6.29763,9.98003c-2.22395,2.97673-5.74453,5.90968-9.71151,8.09056-3.42257,1.8816-9.37195,4.11972-13.22083,4.9736s-10.73237,1.95527-15.29663,2.44753c-4.65491.50204-16.85172.46552-27.77839-.0832-10.71385-.53801-22.73507-1.62697-26.71378-2.42021Zm58.81537-3.65119c5.61499-.73021,12.78296-2.08703,15.92883-3.01515s7.55624-3.23862,9.80082-5.13445s5.76659-6.3747,7.82669-9.95306c2.47562-4.30012,4.04395-8.49705,4.62546-12.37797.4839-3.22951,1.96617-8.18675,3.29394-11.01607s2.89198-8.49373,3.47603-12.58757c.74097-5.1937.71338-8.22435-.0913-10.02741-.63426-1.42123-2.8826-3.70535-4.99631-5.07582s-7.81491-3.49407-12.66932-4.71911c-6.19075-1.56227-15.14875-2.68727-30.00061-3.76767-11.64593-.84716-22.55104-1.33919-24.23357-1.09339s-3.10246,1.05452-3.15537,1.79712s1.91554,3.19117,4.37433,5.44129s5.83339,5.54168,7.49909,7.3146s2.95879,4.20262,2.87352,5.39934-.8658,2.68501-1.73451,3.30727c-1.32325.94786-2.93625-.35737-9.94319-8.046-4.60005-5.04758-9.82332-10.46465-11.60727-12.03795-2.77805-2.45004-4.29056-2.94981-10.53924-3.48244-5.14232-.43829-10.29759-.0206-17.46621,1.41537-5.59378,1.12047-11.05502,2.7225-12.13609,3.56005s-2.7458,2.80003-3.69941,4.36106c-1.43714,2.35256-1.78386,5.24472-2.02616,16.9011-.16077,7.73457.1388,16.80042.66572,20.14633s1.6909,8.83244,2.58663,12.19229s2.96393,7.69854,4.596,9.64154c1.82974,2.17834,4.89513,4.24525,7.99564,5.39125c2.76554,1.0222,8.53076,2.51249,12.8116,3.31176s16.3225,1.90956,26.75925,2.46729c14.09919.75346,21.59961.67286,29.18499-.3136Zm163.28614.53328c5.55922-.63535,13.40623-1.84007,17.43781-2.67714s8.2906-1.95115,9.46449-2.47575s3.38065-2.64804,4.90388-4.71874s3.35822-5.86804,4.07776-8.43852s2.22695-11.0503,3.34985-18.84401s1.84905-15.26096,1.61371-16.59383c-.33348-1.88857-1.92173-3.10148-7.19642-5.4957-3.72268-1.68974-8.22038-3.17572-9.9949-3.30216-2.50628-.17858-4.13827-1.3018-7.31182-5.0324-2.46053-2.89241-4.98445-4.86657-6.3458-4.96357-1.49388-.10644-2.84715.79945-3.99072,2.67144-.95168,1.55788-3.21959,4.73248-5.03982,7.05467s-3.34629,4.73855-3.39126,5.36969-1.3041,2.20725-2.79808,3.50248c-2.19802,1.90562-2.97739,2.10491-4.08456,1.04444-.75253-.72079-1.27576-2.6085-1.16272-4.1949.13836-1.9418,1.81834-4.59952,5.14096-8.13295c2.7145-2.88672,4.79493-5.77731,4.62319-6.42353-.21892-.82375-4.75923-1.44884-15.18971-2.09123-8.1826-.50394-20.05604-.52257-26.38544-.0414s-14.50636,1.57202-18.17107,2.42405c-4.47334,1.04005-7.87176,2.59705-10.34094,4.73776l-3.67786,3.1886.0459,7.87298c.0302,5.17524,1.13587,12.17258,3.22685,20.42081c1.74951,6.9013,4.5389,14.9298,6.19864,17.8411s3.9489,6.43106,5.08703,7.8217s4.04268,3.57492,6.45454,4.85397s6.62822,2.85317,9.3697,3.49804s11.50831,1.42152,19.48184,1.72589s19.04578.0336,24.60499-.6018Z"
            fill="#808000" />
    </g>
</svg>